<?xml version="1.0" encoding="UTF-8" standalone="no"?>
<!DOCTYPE svg PUBLIC "-//W3C//DTD SVG 1.1//EN"
 "http://www.w3.org/Graphics/SVG/1.1/DTD/svg11.dtd">
<!-- Generated by graphviz version 13.0.1 (20250615.1724)
 -->
<!-- Title: PlusoneApp Pages: 1 -->
<svg width="535pt" height="782pt"
 viewBox="0.00 0.00 535.00 782.00" xmlns="http://www.w3.org/2000/svg" xmlns:xlink="http://www.w3.org/1999/xlink">
<g id="graph0" class="graph" transform="scale(1 1) rotate(0) translate(28.8 753.4)">
<title>PlusoneApp</title>
<polygon fill="white" stroke="none" points="-28.8,28.8 -28.8,-753.4 506.09,-753.4 506.09,28.8 -28.8,28.8"/>
<text xml:space="preserve" text-anchor="middle" x="238.65" y="-708.25" font-family="Arial BoldMT" font-size="13.00">PlusoneApp domain model</text>
<!-- m_Activity -->
<g id="node1" class="node">
<title>m_Activity</title>
<path fill="none" stroke="black" d="M12,-0.5C12,-0.5 132.08,-0.5 132.08,-0.5 138.08,-0.5 144.08,-6.5 144.08,-12.5 144.08,-12.5 144.08,-83.15 144.08,-83.15 144.08,-89.15 138.08,-95.15 132.08,-95.15 132.08,-95.15 12,-95.15 12,-95.15 6,-95.15 0,-89.15 0,-83.15 0,-83.15 0,-12.5 0,-12.5 0,-6.5 6,-0.5 12,-0.5"/>
<text xml:space="preserve" text-anchor="start" x="53.17" y="-81.1" font-family="Arial BoldMT" font-size="11.00">Activity</text>
<polyline fill="none" stroke="black" points="0,-75.95 144.08,-75.95"/>
<text xml:space="preserve" text-anchor="start" x="7.04" y="-61.85" font-family="ArialMT" font-size="10.00">completed_at </text>
<text xml:space="preserve" text-anchor="start" x="68.54" y="-61.85" font-family="Arial ItalicMT" font-size="10.00" fill="#999999">datetime (6,0)</text>
<text xml:space="preserve" text-anchor="start" x="7.04" y="-48.6" font-family="ArialMT" font-size="10.00">exp </text>
<text xml:space="preserve" text-anchor="start" x="25.79" y="-48.6" font-family="Arial ItalicMT" font-size="10.00" fill="#999999">float</text>
<text xml:space="preserve" text-anchor="start" x="7.04" y="-35.35" font-family="ArialMT" font-size="10.00">exp_gained </text>
<text xml:space="preserve" text-anchor="start" x="59.54" y="-35.35" font-family="Arial ItalicMT" font-size="10.00" fill="#999999">integer</text>
<text xml:space="preserve" text-anchor="start" x="7.04" y="-22.1" font-family="ArialMT" font-size="10.00">goal_title </text>
<text xml:space="preserve" text-anchor="start" x="49.04" y="-22.1" font-family="Arial ItalicMT" font-size="10.00" fill="#999999">string</text>
<text xml:space="preserve" text-anchor="start" x="7.04" y="-8.85" font-family="ArialMT" font-size="10.00">small_goal_title </text>
<text xml:space="preserve" text-anchor="start" x="77.54" y="-8.85" font-family="Arial ItalicMT" font-size="10.00" fill="#999999">string</text>
</g>
<!-- m_Goal -->
<g id="node2" class="node">
<title>m_Goal</title>
<path fill="none" stroke="black" d="M128,-294.8C128,-294.8 248.08,-294.8 248.08,-294.8 254.08,-294.8 260.08,-300.8 260.08,-306.8 260.08,-306.8 260.08,-381.95 260.08,-381.95 260.08,-387.95 254.08,-393.95 248.08,-393.95 248.08,-393.95 128,-393.95 128,-393.95 122,-393.95 116,-387.95 116,-381.95 116,-381.95 116,-306.8 116,-306.8 116,-300.8 122,-294.8 128,-294.8"/>
<text xml:space="preserve" text-anchor="start" x="174.79" y="-379.9" font-family="Arial BoldMT" font-size="11.00">Goal</text>
<polyline fill="none" stroke="black" points="116,-374.75 260.08,-374.75"/>
<text xml:space="preserve" text-anchor="start" x="123.04" y="-360.65" font-family="ArialMT" font-size="10.00">completed </text>
<text xml:space="preserve" text-anchor="start" x="171.04" y="-360.65" font-family="Arial ItalicMT" font-size="10.00" fill="#999999">boolean (0)</text>
<text xml:space="preserve" text-anchor="start" x="123.04" y="-347.4" font-family="ArialMT" font-size="10.00">content </text>
<text xml:space="preserve" text-anchor="start" x="158.29" y="-347.4" font-family="Arial ItalicMT" font-size="10.00" fill="#999999">text (65535) ∗</text>
<text xml:space="preserve" text-anchor="start" x="123.04" y="-332.65" font-family="ArialMT" font-size="10.00">deadline </text>
<text xml:space="preserve" text-anchor="start" x="162.04" y="-332.65" font-family="Arial ItalicMT" font-size="10.00" fill="#999999">date ∗</text>
<text xml:space="preserve" text-anchor="start" x="123.04" y="-317.9" font-family="ArialMT" font-size="10.00">small_goal </text>
<text xml:space="preserve" text-anchor="start" x="172.54" y="-317.9" font-family="Arial ItalicMT" font-size="10.00" fill="#999999">string</text>
<text xml:space="preserve" text-anchor="start" x="123.04" y="-304.65" font-family="ArialMT" font-size="10.00">title </text>
<text xml:space="preserve" text-anchor="start" x="141.79" y="-304.65" font-family="Arial ItalicMT" font-size="10.00" fill="#999999">string ∗</text>
</g>
<!-- m_Goal&#45;&gt;m_Activity -->
<g id="edge8" class="edge">
<title>m_Goal&#45;&gt;m_Activity</title>
<path fill="none" stroke="black" d="M129.74,-294.31C104.53,-268.3 79.14,-233.9 72.04,-195.98"/>
</g>
<!-- m_SmallGoal -->
<g id="node4" class="node">
<title>m_SmallGoal</title>
<path fill="none" stroke="black" d="M128,-132.15C128,-132.15 250.08,-132.15 250.08,-132.15 256.08,-132.15 262.08,-138.15 262.08,-144.15 262.08,-144.15 262.08,-245.8 262.08,-245.8 262.08,-251.8 256.08,-257.8 250.08,-257.8 250.08,-257.8 128,-257.8 128,-257.8 122,-257.8 116,-251.8 116,-245.8 116,-245.8 116,-144.15 116,-144.15 116,-138.15 122,-132.15 128,-132.15"/>
<text xml:space="preserve" text-anchor="start" x="162.29" y="-243.75" font-family="Arial BoldMT" font-size="11.00">SmallGoal</text>
<polyline fill="none" stroke="black" points="116,-238.6 262.08,-238.6"/>
<text xml:space="preserve" text-anchor="start" x="123.04" y="-224.5" font-family="ArialMT" font-size="10.00">completed </text>
<text xml:space="preserve" text-anchor="start" x="171.04" y="-224.5" font-family="Arial ItalicMT" font-size="10.00" fill="#999999">boolean (0)</text>
<text xml:space="preserve" text-anchor="start" x="123.04" y="-211.25" font-family="ArialMT" font-size="10.00">completed_time </text>
<text xml:space="preserve" text-anchor="start" x="195.04" y="-211.25" font-family="Arial ItalicMT" font-size="10.00" fill="#999999">datetime (6,0)</text>
<text xml:space="preserve" text-anchor="start" x="123.04" y="-198" font-family="ArialMT" font-size="10.00">deadline </text>
<text xml:space="preserve" text-anchor="start" x="162.04" y="-198" font-family="Arial ItalicMT" font-size="10.00" fill="#999999">datetime (6,0) ∗</text>
<text xml:space="preserve" text-anchor="start" x="123.04" y="-183.25" font-family="ArialMT" font-size="10.00">difficulty </text>
<text xml:space="preserve" text-anchor="start" x="162.79" y="-183.25" font-family="Arial ItalicMT" font-size="10.00" fill="#999999">string ∗</text>
<text xml:space="preserve" text-anchor="start" x="123.04" y="-168.5" font-family="ArialMT" font-size="10.00">exp </text>
<text xml:space="preserve" text-anchor="start" x="141.79" y="-168.5" font-family="Arial ItalicMT" font-size="10.00" fill="#999999">integer</text>
<text xml:space="preserve" text-anchor="start" x="123.04" y="-155.25" font-family="ArialMT" font-size="10.00">task </text>
<text xml:space="preserve" text-anchor="start" x="144.79" y="-155.25" font-family="Arial ItalicMT" font-size="10.00" fill="#999999">string</text>
<text xml:space="preserve" text-anchor="start" x="123.04" y="-142" font-family="ArialMT" font-size="10.00">title </text>
<text xml:space="preserve" text-anchor="start" x="141.79" y="-142" font-family="Arial ItalicMT" font-size="10.00" fill="#999999">text (65535) ∗</text>
</g>
<!-- m_Goal&#45;&gt;m_SmallGoal -->
<g id="edge7" class="edge">
<title>m_Goal&#45;&gt;m_SmallGoal</title>
<path fill="none" stroke="black" d="M188.37,-294.7C188.43,-286.32 188.49,-277.46 188.55,-268.61"/>
<polygon fill="black" stroke="black" points="191.7,-268.8 188.61,-259.78 185.4,-268.76 191.7,-268.8"/>
</g>
<!-- m_RouletteText -->
<g id="node3" class="node">
<title>m_RouletteText</title>
<path fill="none" stroke="black" d="M301,-315.43C301,-315.43 421.08,-315.43 421.08,-315.43 427.08,-315.43 433.08,-321.43 433.08,-327.43 433.08,-327.43 433.08,-361.32 433.08,-361.32 433.08,-367.32 427.08,-373.32 421.08,-373.32 421.08,-373.32 301,-373.32 301,-373.32 295,-373.32 289,-367.32 289,-361.32 289,-361.32 289,-327.43 289,-327.43 289,-321.43 295,-315.43 301,-315.43"/>
<text xml:space="preserve" text-anchor="start" x="329.04" y="-359.28" font-family="Arial BoldMT" font-size="11.00">RouletteText</text>
<polyline fill="none" stroke="black" points="289,-354.12 433.08,-354.12"/>
<text xml:space="preserve" text-anchor="start" x="296.04" y="-340.02" font-family="ArialMT" font-size="10.00">number </text>
<text xml:space="preserve" text-anchor="start" x="331.29" y="-340.02" font-family="Arial ItalicMT" font-size="10.00" fill="#999999">integer ∗ U</text>
<text xml:space="preserve" text-anchor="start" x="296.04" y="-325.27" font-family="ArialMT" font-size="10.00">text </text>
<text xml:space="preserve" text-anchor="start" x="315.54" y="-325.27" font-family="Arial ItalicMT" font-size="10.00" fill="#999999">string ∗</text>
</g>
<!-- m_SmallGoal&#45;&gt;m_Activity -->
<g id="edge9" class="edge">
<title>m_SmallGoal&#45;&gt;m_Activity</title>
<path fill="none" stroke="black" d="M139.08,-132C131.4,-122.46 123.51,-112.68 115.97,-103.32"/>
<polygon fill="black" stroke="black" points="118.49,-101.43 110.39,-96.4 113.59,-105.39 118.49,-101.43"/>
</g>
<!-- m_Task -->
<g id="node5" class="node">
<title>m_Task</title>
<path fill="none" stroke="black" d="M185,-19.62C185,-19.62 305.08,-19.62 305.08,-19.62 311.08,-19.62 317.08,-25.62 317.08,-31.62 317.08,-31.62 317.08,-64.03 317.08,-64.03 317.08,-70.03 311.08,-76.03 305.08,-76.03 305.08,-76.03 185,-76.03 185,-76.03 179,-76.03 173,-70.03 173,-64.03 173,-64.03 173,-31.62 173,-31.62 173,-25.62 179,-19.62 185,-19.62"/>
<text xml:space="preserve" text-anchor="start" x="232.17" y="-61.98" font-family="Arial BoldMT" font-size="11.00">Task</text>
<polyline fill="none" stroke="black" points="173,-56.83 317.08,-56.83"/>
<text xml:space="preserve" text-anchor="start" x="180.04" y="-42.73" font-family="ArialMT" font-size="10.00">completed </text>
<text xml:space="preserve" text-anchor="start" x="228.04" y="-42.73" font-family="Arial ItalicMT" font-size="10.00" fill="#999999">boolean (0)</text>
<text xml:space="preserve" text-anchor="start" x="180.04" y="-29.48" font-family="ArialMT" font-size="10.00">content </text>
<text xml:space="preserve" text-anchor="start" x="215.29" y="-29.48" font-family="Arial ItalicMT" font-size="10.00" fill="#999999">text (65535) ∗</text>
</g>
<!-- m_SmallGoal&#45;&gt;m_Task -->
<g id="edge6" class="edge">
<title>m_SmallGoal&#45;&gt;m_Task</title>
<path fill="none" stroke="black" d="M212.95,-132C218.98,-116.37 225.27,-100.08 230.66,-86.09"/>
<polygon fill="black" stroke="black" points="233.57,-87.31 233.87,-77.78 227.69,-85.04 233.57,-87.31"/>
</g>
<!-- m_User -->
<g id="node6" class="node">
<title>m_User</title>
<path fill="none" stroke="black" d="M100.75,-430.95C100.75,-430.95 275.33,-430.95 275.33,-430.95 281.33,-430.95 287.33,-436.95 287.33,-442.95 287.33,-442.95 287.33,-675.6 287.33,-675.6 287.33,-681.6 281.33,-687.6 275.33,-687.6 275.33,-687.6 100.75,-687.6 100.75,-687.6 94.75,-687.6 88.75,-681.6 88.75,-675.6 88.75,-675.6 88.75,-442.95 88.75,-442.95 88.75,-436.95 94.75,-430.95 100.75,-430.95"/>
<text xml:space="preserve" text-anchor="start" x="174.42" y="-673.55" font-family="Arial BoldMT" font-size="11.00">User</text>
<polyline fill="none" stroke="black" points="88.75,-668.4 287.33,-668.4"/>
<text xml:space="preserve" text-anchor="start" x="95.79" y="-654.3" font-family="ArialMT" font-size="10.00">activated </text>
<text xml:space="preserve" text-anchor="start" x="138.54" y="-654.3" font-family="Arial ItalicMT" font-size="10.00" fill="#999999">boolean (0)</text>
<text xml:space="preserve" text-anchor="start" x="95.79" y="-641.05" font-family="ArialMT" font-size="10.00">activated_at </text>
<text xml:space="preserve" text-anchor="start" x="152.04" y="-641.05" font-family="Arial ItalicMT" font-size="10.00" fill="#999999">datetime (6,0)</text>
<text xml:space="preserve" text-anchor="start" x="95.79" y="-627.8" font-family="ArialMT" font-size="10.00">activation_digest </text>
<text xml:space="preserve" text-anchor="start" x="172.29" y="-627.8" font-family="Arial ItalicMT" font-size="10.00" fill="#999999">string</text>
<text xml:space="preserve" text-anchor="start" x="95.79" y="-614.55" font-family="ArialMT" font-size="10.00">cognito_sub </text>
<text xml:space="preserve" text-anchor="start" x="151.29" y="-614.55" font-family="Arial ItalicMT" font-size="10.00" fill="#999999">string</text>
<text xml:space="preserve" text-anchor="start" x="95.79" y="-601.3" font-family="ArialMT" font-size="10.00">current_title </text>
<text xml:space="preserve" text-anchor="start" x="149.79" y="-601.3" font-family="Arial ItalicMT" font-size="10.00" fill="#999999">string</text>
<text xml:space="preserve" text-anchor="start" x="95.79" y="-588.05" font-family="ArialMT" font-size="10.00">email </text>
<text xml:space="preserve" text-anchor="start" x="122.04" y="-588.05" font-family="Arial ItalicMT" font-size="10.00" fill="#999999">string ∗ U</text>
<text xml:space="preserve" text-anchor="start" x="95.79" y="-573.3" font-family="ArialMT" font-size="10.00">exp </text>
<text xml:space="preserve" text-anchor="start" x="114.54" y="-573.3" font-family="Arial ItalicMT" font-size="10.00" fill="#999999">integer</text>
<text xml:space="preserve" text-anchor="start" x="95.79" y="-560.05" font-family="ArialMT" font-size="10.00">last_roulette_rank </text>
<text xml:space="preserve" text-anchor="start" x="176.04" y="-560.05" font-family="Arial ItalicMT" font-size="10.00" fill="#999999">integer</text>
<text xml:space="preserve" text-anchor="start" x="95.79" y="-546.8" font-family="ArialMT" font-size="10.00">legendary_hero_obtained_at </text>
<text xml:space="preserve" text-anchor="start" x="220.29" y="-546.8" font-family="Arial ItalicMT" font-size="10.00" fill="#999999">datetime (6,0)</text>
<text xml:space="preserve" text-anchor="start" x="95.79" y="-533.55" font-family="ArialMT" font-size="10.00">name </text>
<text xml:space="preserve" text-anchor="start" x="122.79" y="-533.55" font-family="Arial ItalicMT" font-size="10.00" fill="#999999">string ∗</text>
<text xml:space="preserve" text-anchor="start" x="95.79" y="-518.8" font-family="ArialMT" font-size="10.00">password_digest </text>
<text xml:space="preserve" text-anchor="start" x="172.29" y="-518.8" font-family="Arial ItalicMT" font-size="10.00" fill="#999999">string</text>
<text xml:space="preserve" text-anchor="start" x="95.79" y="-505.55" font-family="ArialMT" font-size="10.00">rank </text>
<text xml:space="preserve" text-anchor="start" x="117.54" y="-505.55" font-family="Arial ItalicMT" font-size="10.00" fill="#999999">integer</text>
<text xml:space="preserve" text-anchor="start" x="95.79" y="-492.3" font-family="ArialMT" font-size="10.00">remember_digest </text>
<text xml:space="preserve" text-anchor="start" x="173.79" y="-492.3" font-family="Arial ItalicMT" font-size="10.00" fill="#999999">string</text>
<text xml:space="preserve" text-anchor="start" x="95.79" y="-479.05" font-family="ArialMT" font-size="10.00">restart_without_title </text>
<text xml:space="preserve" text-anchor="start" x="184.29" y="-479.05" font-family="Arial ItalicMT" font-size="10.00" fill="#999999">boolean (0)</text>
<text xml:space="preserve" text-anchor="start" x="95.79" y="-465.8" font-family="ArialMT" font-size="10.00">tickets </text>
<text xml:space="preserve" text-anchor="start" x="128.04" y="-465.8" font-family="Arial ItalicMT" font-size="10.00" fill="#999999">integer</text>
<text xml:space="preserve" text-anchor="start" x="95.79" y="-452.55" font-family="ArialMT" font-size="10.00">title_index </text>
<text xml:space="preserve" text-anchor="start" x="143.04" y="-452.55" font-family="Arial ItalicMT" font-size="10.00" fill="#999999">integer</text>
<text xml:space="preserve" text-anchor="start" x="95.79" y="-439.3" font-family="ArialMT" font-size="10.00">total_exp </text>
<text xml:space="preserve" text-anchor="start" x="138.54" y="-439.3" font-family="Arial ItalicMT" font-size="10.00" fill="#999999">integer</text>
</g>
<!-- m_User&#45;&gt;m_Activity -->
<g id="edge1" class="edge">
<title>m_User&#45;&gt;m_Activity</title>
<path fill="none" stroke="black" d="M72.04,-193.98C66.67,-165.33 66.16,-132.94 67.2,-106.04"/>
<polygon fill="black" stroke="black" points="70.34,-106.29 67.62,-97.15 64.05,-105.99 70.34,-106.29"/>
<path fill="none" stroke="black" d="M115.11,-430.88C109.81,-418.8 105,-406.54 101.04,-394.45 73.28,-309.73 88.45,-283.6 72.04,-195.98"/>
</g>
<!-- m_User&#45;&gt;m_Goal -->
<g id="edge2" class="edge">
<title>m_User&#45;&gt;m_Goal</title>
<path fill="none" stroke="black" d="M188.04,-430.74C188.04,-421.65 188.04,-412.77 188.04,-404.39"/>
<polygon fill="black" stroke="black" points="191.19,-404.57 188.04,-395.57 184.89,-404.57 191.19,-404.57"/>
</g>
<!-- m_User&#45;&gt;m_RouletteText -->
<g id="edge5" class="edge">
<title>m_User&#45;&gt;m_RouletteText</title>
<path fill="none" stroke="black" d="M287.67,-435.66C303.79,-415.83 319.29,-396.76 331.85,-381.3"/>
<polygon fill="black" stroke="black" points="333.95,-383.7 337.18,-374.73 329.06,-379.73 333.95,-383.7"/>
</g>
<!-- m_User&#45;&gt;m_SmallGoal -->
<g id="edge3" class="edge">
<title>m_User&#45;&gt;m_SmallGoal</title>
<path fill="none" stroke="black" stroke-dasharray="1,5" d="M477.04,-343.38C477.48,-318.04 467.42,-310.62 448.04,-294.3 433.83,-282.33 342.46,-249 272.22,-224.45"/>
<polygon fill="black" stroke="black" points="273.42,-221.54 263.89,-221.55 271.35,-227.49 273.42,-221.54"/>
<path fill="none" stroke="black" stroke-dasharray="1,5" d="M287.52,-529.81C370.45,-499.26 475.37,-441.64 477.04,-345.38"/>
</g>
<!-- m_User&#45;&gt;m_Task -->
<g id="edge4" class="edge">
<title>m_User&#45;&gt;m_Task</title>
<path fill="none" stroke="black" stroke-dasharray="1,5" d="M477.04,-343.38C479.04,-227.91 366.85,-131.02 297.77,-82.41"/>
<polygon fill="black" stroke="black" points="299.6,-79.84 290.4,-77.3 296.01,-85.02 299.6,-79.84"/>
</g>
</g>
</svg>
